<?xml version="1.0" standalone="no"?>
<!DOCTYPE svg PUBLIC "-//W3C//DTD SVG 20010904//EN"
 "http://www.w3.org/TR/2001/REC-SVG-20010904/DTD/svg10.dtd">
<svg version="1.0" xmlns="http://www.w3.org/2000/svg"
 width="500.000000pt" height="500.000000pt" viewBox="0 0 500.000000 500.000000"
 preserveAspectRatio="xMidYMid meet">
<metadata>
Created by potrace 1.11, written by Peter Selinger 2001-2013
</metadata>
<g transform="translate(0.000000,500.000000) scale(0.100000,-0.100000)"
fill="#000000" stroke="none">
<path d="M2220 4819 c-197 -24 -225 -28 -350 -56 -443 -96 -831 -303 -1130
-603 -243 -243 -410 -511 -519 -838 -47 -140 -93 -343 -106 -467 -3 -27 -8
-70 -11 -95 -19 -149 -6 -554 21 -674 3 -12 7 -32 9 -46 33 -200 103 -423 191
-605 283 -588 798 -997 1465 -1165 105 -27 198 -45 290 -56 19 -3 49 -7 65 -9
152 -24 557 -23 715 0 144 22 239 40 325 61 570 142 1038 464 1340 924 111
168 232 433 271 590 2 8 10 40 19 70 15 56 50 233 59 305 24 181 25 560 2 685
-3 14 -7 47 -11 73 -36 291 -171 650 -337 904 -322 490 -795 806 -1422 950
-43 9 -238 42 -288 48 -83 10 -526 13 -598 4z m256 -930 c202 -26 350 -93 466
-210 139 -141 220 -385 220 -665 0 -367 -154 -805 -368 -1043 -24 -27 -44 -52
-44 -55 0 -17 195 123 310 223 275 238 457 489 544 751 19 58 38 119 41 135
14 74 23 159 25 220 l0 50 31 -55 c51 -93 118 -287 135 -390 3 -19 8 -38 9
-41 19 -29 27 -407 12 -531 -10 -84 -60 -285 -89 -358 -211 -536 -679 -851
-1268 -854 -614 -3 -1112 350 -1300 923 -22 66 -44 148 -50 183 -5 35 -12 74
-14 88 -15 82 -21 280 -12 390 17 214 90 466 182 623 217 374 618 622 1005
625 53 0 128 -4 165 -9z"/>
</g>
</svg>
